X Lossless Decoder version 20250302 (157.2)

XLD extraction logfile from 2025-10-07 19:47:31 -0500

Buddy Guy / Ain't Done With The Blues

Used drive : ASUS SDRW-08U7M-U (revision A112)
Media type : Pressed CD

Ripper mode             : XLD Secure Ripper
Disable audio cache     : OK for the drive with a cache less than 1375KiB
Make use of C2 pointers : NO
Read offset correction  : 6
Max retry count         : 999
Gap status              : Analyzed, Appended (except HTOA)

TOC of the extracted CD
     Track |   Start  |  Length  | Start sector | End sector 
    ---------------------------------------------------------
        1  | 00:00:00 | 01:08:61 |         0    |     5160   
        2  | 01:08:61 | 03:48:13 |      5161    |    22273   
        3  | 04:56:74 | 04:49:45 |     22274    |    43993   
        4  | 09:46:44 | 04:02:21 |     43994    |    62164   
        5  | 13:48:65 | 04:57:18 |     62165    |    84457   
        6  | 18:46:08 | 02:32:55 |     84458    |    95912   
        7  | 21:18:63 | 04:23:49 |     95913    |   115686   
        8  | 25:42:37 | 04:42:60 |    115687    |   136896   
        9  | 30:25:22 | 02:56:73 |    136897    |   150169   
       10  | 33:22:20 | 03:49:30 |    150170    |   167374   
       11  | 37:11:50 | 04:14:67 |    167375    |   186491   
       12  | 41:26:42 | 03:12:48 |    186492    |   200939   
       13  | 44:39:15 | 01:10:30 |    200940    |   206219   
       14  | 45:49:45 | 03:31:53 |    206220    |   222097   
       15  | 49:21:23 | 04:29:69 |    222098    |   242341   
       16  | 53:51:17 | 05:01:66 |    242342    |   264982   
       17  | 58:53:08 | 02:45:50 |    264983    |   277407   
       18  | 61:38:58 | 03:14:32 |    277408    |   291989   

AccurateRip Summary (DiscID: 002a5df7-0238273a-f20f3512)
    Track 01 : OK (v2, confidence 10/10)
    Track 02 : OK (v2, confidence 10/10)
    Track 03 : OK (v2, confidence 10/10)
    Track 04 : OK (v2, confidence 10/10)
    Track 05 : OK (v2, confidence 10/10)
    Track 06 : OK (v2, confidence 10/10)
    Track 07 : OK (v2, confidence 10/10)
    Track 08 : OK (v2, confidence 10/10)
    Track 09 : OK (v2, confidence 10/10)
    Track 10 : OK (v2, confidence 10/10)
    Track 11 : OK (v2, confidence 10/10)
    Track 12 : OK (v2, confidence 10/10)
    Track 13 : OK (v2, confidence 10/10)
    Track 14 : OK (v2, confidence 10/10)
    Track 15 : OK (v2, confidence 10/10)
    Track 16 : OK (v2, confidence 10/10)
    Track 17 : OK (v2, confidence 10/10)
    Track 18 : OK (v2, confidence 10/10)
        ->All tracks accurately ripped.

All Tracks
    Album gain               : -10.79 dB
    Peak                     : 0.908386
    Statistics
        Read error                           : 0
        Jitter error (maybe fixed)           : 0
        Retry sector count                   : 0
        Damaged sector count                 : 0

Track 01
    Filename : /private/tmp/xld/Ain't Done With The Blues/Track 01.flac
    Pre-gap length : 00:02:00

    Track gain               : -4.89 dB
    Peak                     : 0.863281
    CRC32 hash (test run)    : F9DD61C9
    CRC32 hash               : F9DD61C9
    CRC32 hash (skip zero)   : 18EC5CA4
    AccurateRip v1 signature : 6F556D74
    AccurateRip v2 signature : 5F4E0487
        ->Accurately ripped (v2, confidence 10/10)
    Statistics
        Read error                           : 0
        Jitter error (maybe fixed)           : 0
        Retry sector count                   : 0
        Damaged sector count                 : 0

Track 02
    Filename : /private/tmp/xld/Ain't Done With The Blues/Track 02.flac

    Track gain               : -11.58 dB
    Peak                     : 0.886597
    CRC32 hash (test run)    : 34DF743D
    CRC32 hash               : 34DF743D
    CRC32 hash (skip zero)   : F330FDF2
    AccurateRip v1 signature : 9CFDBDDB
    AccurateRip v2 signature : 5DBC3681
        ->Accurately ripped (v2, confidence 10/10)
    Statistics
        Read error                           : 0
        Jitter error (maybe fixed)           : 0
        Retry sector count                   : 0
        Damaged sector count                 : 0

Track 03
    Filename : /private/tmp/xld/Ain't Done With The Blues/Track 03.flac

    Track gain               : -10.92 dB
    Peak                     : 0.899261
    CRC32 hash (test run)    : C9C6C5D7
    CRC32 hash               : C9C6C5D7
    CRC32 hash (skip zero)   : ECBE8F9E
    AccurateRip v1 signature : 4728677E
    AccurateRip v2 signature : CEBBFDEF
        ->Accurately ripped (v2, confidence 10/10)
    Statistics
        Read error                           : 0
        Jitter error (maybe fixed)           : 0
        Retry sector count                   : 0
        Damaged sector count                 : 0

Track 04
    Filename : /private/tmp/xld/Ain't Done With The Blues/Track 04.flac

    Track gain               : -11.05 dB
    Peak                     : 0.886230
    CRC32 hash (test run)    : FEC96A98
    CRC32 hash               : FEC96A98
    CRC32 hash (skip zero)   : 7F538164
    AccurateRip v1 signature : 9BE01526
    AccurateRip v2 signature : 050A9F2E
        ->Accurately ripped (v2, confidence 10/10)
    Statistics
        Read error                           : 0
        Jitter error (maybe fixed)           : 0
        Retry sector count                   : 0
        Damaged sector count                 : 0

Track 05
    Filename : /private/tmp/xld/Ain't Done With The Blues/Track 05.flac

    Track gain               : -10.31 dB
    Peak                     : 0.886444
    CRC32 hash (test run)    : 4C180A54
    CRC32 hash               : 4C180A54
    CRC32 hash (skip zero)   : CFBBFDE3
    AccurateRip v1 signature : BF0B14E4
    AccurateRip v2 signature : 91A4EFA5
        ->Accurately ripped (v2, confidence 10/10)
    Statistics
        Read error                           : 0
        Jitter error (maybe fixed)           : 0
        Retry sector count                   : 0
        Damaged sector count                 : 0

Track 06
    Filename : /private/tmp/xld/Ain't Done With The Blues/Track 06.flac

    Track gain               : -11.08 dB
    Peak                     : 0.908386
    CRC32 hash (test run)    : F1B5F8E0
    CRC32 hash               : F1B5F8E0
    CRC32 hash (skip zero)   : 64AF6A67
    AccurateRip v1 signature : 6F0AE869
    AccurateRip v2 signature : DA9E0AAA
        ->Accurately ripped (v2, confidence 10/10)
    Statistics
        Read error                           : 0
        Jitter error (maybe fixed)           : 0
        Retry sector count                   : 0
        Damaged sector count                 : 0

Track 07
    Filename : /private/tmp/xld/Ain't Done With The Blues/Track 07.flac

    Track gain               : -11.26 dB
    Peak                     : 0.886566
    CRC32 hash (test run)    : 6C6D2F28
    CRC32 hash               : 6C6D2F28
    CRC32 hash (skip zero)   : 7A4380E6
    AccurateRip v1 signature : FB1ABE75
    AccurateRip v2 signature : A9754AE2
        ->Accurately ripped (v2, confidence 10/10)
    Statistics
        Read error                           : 0
        Jitter error (maybe fixed)           : 0
        Retry sector count                   : 0
        Damaged sector count                 : 0

Track 08
    Filename : /private/tmp/xld/Ain't Done With The Blues/Track 08.flac

    Track gain               : -10.11 dB
    Peak                     : 0.886658
    CRC32 hash (test run)    : 7537CF28
    CRC32 hash               : 7537CF28
    CRC32 hash (skip zero)   : C2B3D51F
    AccurateRip v1 signature : 88633CE1
    AccurateRip v2 signature : 5451A1DD
        ->Accurately ripped (v2, confidence 10/10)
    Statistics
        Read error                           : 0
        Jitter error (maybe fixed)           : 0
        Retry sector count                   : 0
        Damaged sector count                 : 0

Track 09
    Filename : /private/tmp/xld/Ain't Done With The Blues/Track 09.flac

    Track gain               : -11.55 dB
    Peak                     : 0.886597
    CRC32 hash (test run)    : 1D8FFD6B
    CRC32 hash               : 1D8FFD6B
    CRC32 hash (skip zero)   : A1555C3F
    AccurateRip v1 signature : C58496BD
    AccurateRip v2 signature : 8BB9746C
        ->Accurately ripped (v2, confidence 10/10)
    Statistics
        Read error                           : 0
        Jitter error (maybe fixed)           : 0
        Retry sector count                   : 0
        Damaged sector count                 : 0

Track 10
    Filename : /private/tmp/xld/Ain't Done With The Blues/Track 10.flac

    Track gain               : -10.67 dB
    Peak                     : 0.886505
    CRC32 hash (test run)    : 2907F787
    CRC32 hash               : 2907F787
    CRC32 hash (skip zero)   : 72495AD1
    AccurateRip v1 signature : 986DB28C
    AccurateRip v2 signature : 0A123F5D
        ->Accurately ripped (v2, confidence 10/10)
    Statistics
        Read error                           : 0
        Jitter error (maybe fixed)           : 0
        Retry sector count                   : 0
        Damaged sector count                 : 0

Track 11
    Filename : /private/tmp/xld/Ain't Done With The Blues/Track 11.flac

    Track gain               : -10.75 dB
    Peak                     : 0.886261
    CRC32 hash (test run)    : 2D29DE67
    CRC32 hash               : 2D29DE67
    CRC32 hash (skip zero)   : 75B24E19
    AccurateRip v1 signature : 437F4365
    AccurateRip v2 signature : 2AD291E0
        ->Accurately ripped (v2, confidence 10/10)
    Statistics
        Read error                           : 0
        Jitter error (maybe fixed)           : 0
        Retry sector count                   : 0
        Damaged sector count                 : 0

Track 12
    Filename : /private/tmp/xld/Ain't Done With The Blues/Track 12.flac

    Track gain               : -11.72 dB
    Peak                     : 0.896942
    CRC32 hash (test run)    : ABDA23BD
    CRC32 hash               : ABDA23BD
    CRC32 hash (skip zero)   : 68AA047B
    AccurateRip v1 signature : 2F0C61D2
    AccurateRip v2 signature : 567BE536
        ->Accurately ripped (v2, confidence 10/10)
    Statistics
        Read error                           : 0
        Jitter error (maybe fixed)           : 0
        Retry sector count                   : 0
        Damaged sector count                 : 0

Track 13
    Filename : /private/tmp/xld/Ain't Done With The Blues/Track 13.flac

    Track gain               : -4.92 dB
    Peak                     : 0.886597
    CRC32 hash (test run)    : 1DC399A2
    CRC32 hash               : 1DC399A2
    CRC32 hash (skip zero)   : BC29B79E
    AccurateRip v1 signature : FCD6F1B0
    AccurateRip v2 signature : DE9CC83E
        ->Accurately ripped (v2, confidence 10/10)
    Statistics
        Read error                           : 0
        Jitter error (maybe fixed)           : 0
        Retry sector count                   : 0
        Damaged sector count                 : 0

Track 14
    Filename : /private/tmp/xld/Ain't Done With The Blues/Track 14.flac

    Track gain               : -8.79 dB
    Peak                     : 0.886261
    CRC32 hash (test run)    : 72A316CD
    CRC32 hash               : 72A316CD
    CRC32 hash (skip zero)   : FBD1A6D9
    AccurateRip v1 signature : 3402DA67
    AccurateRip v2 signature : 0B466DA8
        ->Accurately ripped (v2, confidence 10/10)
    Statistics
        Read error                           : 0
        Jitter error (maybe fixed)           : 0
        Retry sector count                   : 0
        Damaged sector count                 : 0

Track 15
    Filename : /private/tmp/xld/Ain't Done With The Blues/Track 15.flac

    Track gain               : -11.10 dB
    Peak                     : 0.886658
    CRC32 hash (test run)    : E359C7DC
    CRC32 hash               : E359C7DC
    CRC32 hash (skip zero)   : 2A909DC6
    AccurateRip v1 signature : 6B4E01A4
    AccurateRip v2 signature : 06A67D27
        ->Accurately ripped (v2, confidence 10/10)
    Statistics
        Read error                           : 0
        Jitter error (maybe fixed)           : 0
        Retry sector count                   : 0
        Damaged sector count                 : 0

Track 16
    Filename : /private/tmp/xld/Ain't Done With The Blues/Track 16.flac

    Track gain               : -11.02 dB
    Peak                     : 0.886597
    CRC32 hash (test run)    : 5FCFD263
    CRC32 hash               : 5FCFD263
    CRC32 hash (skip zero)   : 08D55E4D
    AccurateRip v1 signature : 23C7EAE2
    AccurateRip v2 signature : 03AD68E4
        ->Accurately ripped (v2, confidence 10/10)
    Statistics
        Read error                           : 0
        Jitter error (maybe fixed)           : 0
        Retry sector count                   : 0
        Damaged sector count                 : 0

Track 17
    Filename : /private/tmp/xld/Ain't Done With The Blues/Track 17.flac

    Track gain               : -10.60 dB
    Peak                     : 0.886597
    CRC32 hash (test run)    : 85FB8C71
    CRC32 hash               : 85FB8C71
    CRC32 hash (skip zero)   : 9BF468A7
    AccurateRip v1 signature : ED822B7A
    AccurateRip v2 signature : D1840400
        ->Accurately ripped (v2, confidence 10/10)
    Statistics
        Read error                           : 0
        Jitter error (maybe fixed)           : 0
        Retry sector count                   : 0
        Damaged sector count                 : 0

Track 18
    Filename : /private/tmp/xld/Ain't Done With The Blues/Track 18.flac

    Track gain               : -9.93 dB
    Peak                     : 0.886627
    CRC32 hash (test run)    : 7B13AC26
    CRC32 hash               : 7B13AC26
    CRC32 hash (skip zero)   : 8ED9B116
    AccurateRip v1 signature : B807E7CF
    AccurateRip v2 signature : 336487A3
        ->Accurately ripped (v2, confidence 10/10)
    Statistics
        Read error                           : 0
        Jitter error (maybe fixed)           : 0
        Retry sector count                   : 0
        Damaged sector count                 : 0

No errors occurred

End of status report

-----BEGIN XLD SIGNATURE-----
eTtMbqUnAvzfZbT7vyBCOjblAWym.pkOhiKmAYyjy.sKFZ2Y4jGduw6ncZhSp1EJMvClem_njagOjW2_0WH2N7vLLv8QAgXuHlXKPiC
-----END XLD SIGNATURE-----
